<svg width="512" height="512" viewBox="0 0 512 512" fill="none" xmlns="http://www.w3.org/2000/svg">
<rect width="512" height="512" rx="96" fill="#1D293F"/>
<path d="M194.155 415.512C184.391 405.749 184.391 389.92 194.155 380.157L355.502 218.809C369.756 204.555 392.867 204.555 407.121 218.809V218.809C421.375 233.064 421.375 256.174 407.121 270.428L245.773 431.776C236.01 441.539 220.181 441.539 210.418 431.776L194.155 415.512Z" fill="white"/>
<path d="M245.274 431.771C235.511 441.535 219.682 441.535 209.919 431.771L140.809 362.662C126.555 348.408 126.555 325.297 140.809 311.043V311.043C155.064 296.789 178.174 296.789 192.428 311.043L261.538 380.153C271.301 389.916 271.301 405.745 261.538 415.508L245.274 431.771Z" fill="white"/>
<path d="M200 280V265C200 255 202.167 246.5 206.5 239.5C210.833 232.167 216.167 225.833 222.5 220.5C228.833 214.833 235.167 209.5 241.5 204.5C247.833 199.5 253.167 194.333 257.5 189C261.833 183.667 264 177.667 264 171C264 155 254 147 234 147C221 147 209.167 148.833 198.5 152.5C187.833 156.167 177.667 160.5 168 165.5C165 166.5 162.833 167 161.5 167C159.167 167 157.5 165.667 156.5 163L150 143.5C146.667 133.5 146.333 125.167 149 118.5C151.667 111.833 158.833 105.833 170.5 100.5C189.167 91.5 211.333 87 237 87C255 87 271.333 89.6667 286 95C300.667 100.333 312.167 108.5 320.5 119.5C329.167 130.5 333.5 144.5 333.5 161.5C333.5 176.167 330.667 189 325 200C319.667 211 311.833 221.167 301.5 230.5C291.5 239.833 279.333 249.667 265 260C261.333 262.667 259 265 258 267C257.333 269 257 271.667 257 275V280C257 284.333 254.667 286.5 250 286.5H206.5C202.167 286.5 200 284.333 200 280Z" fill="white"/>
</svg>
